# xmcd
#
# Track frame offsets: 
#        150
#        30564
#        56013
#        84074
#        113223
#        137998
#        156150
#        191858
#        223362
#        260286
#        298888
#        330126
#
# Disc length: 4710 seconds
#
# Revision: 1
# Processed by: cddbd v1.5.2PL0 Copyright (c) Steve Scherf et al.
# Submitted via: ExactAudioCopy v0.99pb5
#
DISCID=b012640c
DTITLE=Various Artist - The House That Jackin' Built
DYEAR=2009
DGENRE=House
TTITLE0=Marshall Jefferson - Move Your Body (The House Music Anthem)
TTITLE1=Farley Jackmaster Funk and Jesse Saunders Featuring Darryl Pandy
TTITLE1=Love Can't Turn Around
TTITLE2=Adonis Featuring 2 Puerto Ricans, A Black Man And A Dominican 
TTITLE2=/ Do It Properly
TTITLE3=Frankie Knuckles - Your Love (You Got The Love Remix)
TTITLE4=Mr Fingers - Can You Feel It
TTITLE5=Jamie Principle - Waiting On My Angel
TTITLE6=The Nightwriters - Let The Music (Use You)
TTITLE7=Master C and J - Face It
TTITLE8=Housemaster Boyz and The Rude Boy Of House - House Nation
TTITLE9=Frankie Knuckles Featuring Jamie Principle - Baby Wants To Rid
TTITLE9=e
TTITLE10=Ralphi Rosario Featuring Xavier Gold - You Used To Hold Me
TTITLE11=Joe Smooth - Promised Land
EXTD=
EXTT0=
EXTT1=
EXTT2=
EXTT3=
EXTT4=
EXTT5=
EXTT6=
EXTT7=
EXTT8=
EXTT9=
EXTT10=
EXTT11=
PLAYORDER=
